<?xml version="1.0" standalone="no"?>
<!DOCTYPE svg PUBLIC "-//W3C//DTD SVG 20010904//EN"
 "http://www.w3.org/TR/2001/REC-SVG-20010904/DTD/svg10.dtd">
<svg version="1.0" xmlns="http://www.w3.org/2000/svg"
 width="180.000000pt" height="180.000000pt" viewBox="0 0 180.000000 180.000000"
 preserveAspectRatio="xMidYMid meet">
<metadata>
Created by potrace 1.14, written by Peter Selinger 2001-2017
</metadata>
<g transform="translate(0.000000,180.000000) scale(0.100000,-0.100000)"
fill="#000000" stroke="none">
<path d="M0 900 l0 -900 471 0 c323 0 477 3 491 11 15 8 19 8 14 0 -5 -8 109
-11 408 -11 l416 0 0 900 0 900 -900 0 -900 0 0 -900z m680 459 c0 -8 21 -9
70 -4 60 6 70 5 70 -9 0 -12 10 -16 45 -16 25 0 45 -4 45 -10 0 -5 5 -10 10
-10 6 0 10 7 10 15 0 8 -5 15 -11 15 -5 0 -7 5 -4 10 10 17 32 11 56 -15 13
-13 30 -25 37 -25 21 0 13 -38 -13 -65 -16 -15 -37 -25 -55 -25 -31 0 -37 -9
-19 -27 15 -15 -2 -22 -28 -12 -14 5 -23 17 -24 31 -1 16 -3 13 -9 -11 -5 -19
-4 -45 1 -58 5 -13 6 -23 3 -23 -4 0 0 -7 7 -16 12 -14 8 -15 -42 -9 -30 4
-89 8 -132 8 -72 2 -77 3 -77 24 0 12 -5 23 -11 25 -7 2 -7 12 -1 29 7 16 7
31 1 40 -9 13 -10 125 -2 142 6 11 73 8 73 -4z m312 -227 c-27 -4 -37 2 -27
17 4 8 13 7 28 -1 l22 -13 -23 -3z m-52 -2 c0 -5 -7 -7 -15 -4 -8 4 -15 8 -15
10 0 2 7 4 15 4 8 0 15 -4 15 -10z m-549 -91 c-12 -11 -21 -24 -21 -30 0 -6
-5 -7 -10 -4 -11 7 5 45 24 57 21 14 27 -5 7 -23z m49 -65 c0 -45 -24 -42 -28
4 -2 24 1 32 12 32 12 0 16 -10 16 -36z m540 -14 c0 -40 -25 -63 -42 -38 -11
17 -1 70 14 79 20 12 28 0 28 -41z m-410 13 c13 -10 36 -30 52 -45 16 -16 33
-28 38 -28 15 0 50 -52 50 -75 0 -28 29 -35 113 -27 l59 5 -18 -22 c-11 -13
-29 -27 -41 -31 -12 -5 -27 -19 -33 -30 -10 -19 -9 -21 7 -18 21 4 68 -46 58
-62 -3 -6 -10 -8 -15 -5 -10 6 -60 -19 -71 -36 -4 -6 1 -27 12 -45 l19 -34
-23 -1 c-12 -1 -30 -2 -39 -2 -11 0 -18 -7 -18 -18 0 -11 -4 -19 -9 -19 -19 0
-23 22 -10 46 12 22 10 27 -17 53 -43 43 -55 59 -59 83 -3 12 -10 25 -16 29
-6 3 -9 15 -5 25 6 19 -9 70 -32 112 -7 12 -10 27 -6 33 4 6 2 14 -3 18 -13 8
-43 98 -35 105 9 9 16 7 42 -11z m-164 -63 c7 0 18 -8 23 -18 15 -28 25 -122
14 -122 -21 0 -43 39 -47 79 -2 23 -7 45 -11 49 -5 4 -5 -1 -2 -10 3 -10 2
-20 -3 -23 -6 -4 -10 -5 -11 -3 0 2 -2 23 -5 48 -4 44 -3 44 12 23 9 -13 22
-23 30 -23z m560 -27 c19 -26 18 -113 -1 -113 -8 0 -15 3 -15 8 -1 4 -3 33 -6
65 -6 59 0 69 22 40z m-46 -63 c0 -5 -4 -10 -10 -10 -5 0 -10 5 -10 10 0 6 5
10 10 10 6 0 10 -4 10 -10z m23 -95 c-20 -27 -29 -30 -38 -15 -7 12 36 51 47
43 5 -2 0 -15 -9 -28z m37 -45 c0 -5 -7 -10 -15 -10 -8 0 -15 5 -15 10 0 6 7
10 15 10 8 0 15 -4 15 -10z m-53 -130 l11 -30 -43 0 c-24 0 -50 -3 -59 -6 -12
-5 -16 0 -16 19 0 35 11 40 55 21 36 -15 36 -14 30 6 -10 32 9 23 22 -10z m80
-27 c-9 -9 -19 -14 -23 -11 -10 10 6 28 24 28 15 0 15 -1 -1 -17z m-192 -74
c11 -17 2 -18 -19 -3 -17 12 -17 14 -4 14 9 0 20 -5 23 -11z m94 -118 c7 -5
11 -13 7 -19 -11 -18 -46 -20 -63 -4 -15 15 -14 17 8 23 33 10 32 10 48 0z"/>
<path d="M725 657 c-11 -7 -22 -13 -24 -15 -7 -4 33 -31 47 -32 6 0 22 10 34
22 21 21 21 22 2 29 -26 10 -36 10 -59 -4z"/>
<path d="M703 587 c2 -7 12 -14 21 -15 11 -3 17 1 14 9 -2 7 -12 13 -22 15 -9
1 -15 -3 -13 -9z"/>
</g>
</svg>
